<?xml version="1.0" encoding="iso-8859-1"?>
<!-- Uploaded to: SVG Repo, www.svgrepo.com, Generator: SVG Repo Mixer Tools -->
<svg fill="#000000" height="800px" width="800px" version="1.1" id="Capa_1" xmlns="http://www.w3.org/2000/svg" xmlns:xlink="http://www.w3.org/1999/xlink" 
	 viewBox="0 0 55.641 55.641" xml:space="preserve">
<g>
	<path d="M1.885,25.36l-1.133,0.126l-0.188,0.503L0,26.24l2.45,8.296c0,0,0.438,0.815,1.257,0.502
		c0.815-0.313,0.689-1.131,0.438-1.948C3.895,32.273,1.885,25.36,1.885,25.36z M53.051,11.837l-0.662,0.092
		c0,0-0.517-0.233-1.083-0.188l2.591,9.33l0.661,0.096l0.519,0.142l0.564-0.33L53.051,11.837z M5.527,23.603l2.892,9.801l1.32-0.44
		L6.72,23.161L5.527,23.603z M50.882,11.695c0,0-1.935,0.045-2.121,0.233l2.402,8.437c0,0,0.282,1.037,0.849,1.177
		c0.564,0.143,1.131,0,1.272-0.328c0.141-0.331,0.189-0.472-0.095-1.179C52.907,19.328,50.882,11.695,50.882,11.695z M47.77,12.919
		l0.568-0.094l-0.237-0.85l-1.191,0.131C42.746,5.581,35.449,1.251,27.138,1.251c-12.791,0-23.184,10.25-23.429,22.982l-0.065-0.005
		l-0.565,0.439l-0.755,0.441l2.701,9.362l0.765-0.102c3.685,8.116,11.854,13.764,21.349,13.764c1.979,0,3.898-0.246,5.735-0.709
		l0.124,0.424l-1.298,0.26l-8.545,6.282h18.223l-4.022-7.413L35.04,47.44l-0.18-0.614c9.15-3.193,15.721-11.896,15.721-22.135
		c0-3.693-0.857-7.184-2.377-10.29L47.77,12.919z M37.282,7.952c0.217-0.436,1.519,0.325,2.169,0.541
		c0.65,0.218,1.627,0.326,2.277,0.87c0.482,0.4,0.904,0.624,1.61,0.929c0.538,0.603,1.038,1.236,1.506,1.896
		c-0.446,0.117-2.218,0.708-1.598,2.568c0.706,2.121,3.109,4.666,3.157,5.514c0.031,0.557-0.161,1.294-0.297,1.736
		c-0.674-2.293-1.656-4.56-2.945-6.725c-0.558-0.937-1.165-1.828-1.806-2.68c0.156-0.135,0.29-0.305,0.372-0.526
		c0.328-0.87,0-1.194,0-1.194s-1.941-0.795-2.799-1.109c-0.537-0.551-1.094-1.076-1.666-1.57
		C37.246,8.106,37.248,8.021,37.282,7.952z M30.443,6.759c0.762-0.326,1.304,0.65,1.737,1.193c0.436,0.541,0.217,1.193-0.108,1.734
		c-0.229,0.384-0.464,0.55-0.881,0.652c-1.111-1.129-2.25-2.141-3.403-3.019C28.896,7.47,29.72,7.067,30.443,6.759z M24.802,7.083
		c0.443-0.11,0.858-0.107,1.318-0.05c1.371,0.922,2.769,2.078,4.145,3.437c-0.854,0.04-1.984-0.154-2.859-0.348
		c-0.682-0.152-2.16-0.25-3.396-0.482l-0.698-2.391C24.228,6.907,23.975,7.291,24.802,7.083z M22.589,3.493
		c-0.046,0.183-0.131,0.342-0.228,0.502l-0.121-0.42C22.355,3.549,22.471,3.518,22.589,3.493z M25.346,23.253
		c0.204,0.047,0.377,0.118,0.534,0.202l0.979,3.359c-0.347,0.444-1.098,0.668-1.098,0.668l0.377,0.8c0,0,0.509-0.017,1.023-0.428
		l1.224,4.188c-1.174-1.752-2.396-3.682-3.649-5.785c-0.954-1.602-1.855-3.19-2.696-4.742
		C23.643,21.568,24.008,22.946,25.346,23.253z M21.299,7.759l0.199,0.686c-0.189-0.214-0.374-0.423-0.56-0.621
		C21.058,7.801,21.178,7.78,21.299,7.759z M19.224,4.515c0.372-0.006,0.758,0.02,1.15,0.074l0.354,1.214
		c-0.327,0.237-0.692,0.49-1.046,0.744c-0.659-0.624-1.269-1.113-1.814-1.449C18.311,4.888,18.764,4.693,19.224,4.515z M16.01,6.095
		c0.349-0.209,0.703-0.41,1.062-0.6C17.505,5.698,18.143,6.128,19.066,7c-0.529,0.4-0.96,0.777-1.102,1.062
		c-0.435,0.866,0.758,0.432,1.52,0.107c0.152-0.064,0.349-0.121,0.572-0.174c0.378,0.397,0.787,0.854,1.234,1.375
		c-0.161,0.167-0.303,0.374-0.505,0.535c-0.541,0.435-1.192,0.651-2.17,0.977c-0.824,0.274-0.8,0.781-0.901,1.584
		c-0.065-0.163-0.131-0.328-0.194-0.488C16.189,8.559,15.956,6.897,16.01,6.095z M20.343,25.644l-1.362-4.342
		c0.207,0.046,0.43,0.086,0.663,0.12c0.329,0.317,0.682,0.774,0.887,1.394C21.003,24.229,20.343,25.644,20.343,25.644z
		 M14.782,6.886c0.163-0.113,0.328-0.223,0.495-0.332c0.068,1.637,0.86,4.17,2.123,7.159c-0.216,0.497-0.477,0.789-0.628,1.399
		c-0.217,0.87-0.871,2.39-1.304,3.367c-0.435,0.976,1.52,1.844,2.062,2.277c0.024,0.019,0.054,0.038,0.08,0.057l2.825,8.931
		l0.991-0.238l-0.566-1.929c0,0,0.801,0.848,1.272,1.129c0.472,0.282,0.943,0.473,0.943,0.473l0.33-0.99
		c0,0-0.614-0.329-1.084-0.611c-0.472-0.284-1.085-1.039-1.085-1.039s1.132-2.044,0.095-4.429c-0.091-0.211-0.193-0.4-0.299-0.577
		c0.052,0.001,0.105-0.003,0.159-0.003c0.91,1.695,1.886,3.416,2.897,5.114c1.659,2.785,3.347,5.39,4.967,7.7l2.483,8.52
		c-4.359-2.267-9.079-7.095-12.665-13.112c-1.703-2.857-3.042-5.811-3.975-8.654l0.305-0.119l-0.235-0.612l-0.273,0.087
		c-1.31-4.247-1.688-8.202-0.943-11.146C13.99,8.365,14.336,7.558,14.782,6.886z M16.691,27.351l-0.78,0.132l-1.079-4.284
		C15.363,24.571,15.983,25.961,16.691,27.351z M27.138,46.375c-9.208,0-17.069-5.742-20.212-13.837l-1.054-3.614
		c-0.271-1.367-0.417-2.782-0.417-4.23c0-5.125,1.782-9.832,4.756-13.541c-0.474,1.012-0.863,2.096-1.155,3.252
		c-0.643,2.538-0.791,5.247-0.481,7.992l-0.722,0.2l1.222,2.72c0.648,2.816,1.772,5.622,3.353,8.274
		c3.67,6.163,9.234,10.572,15.267,12.101c0.845,0.215,1.683,0.366,2.509,0.457C29.199,46.292,28.18,46.375,27.138,46.375z
		 M27.879,44.961c-5.839-1.481-11.234-5.766-14.805-11.757c-0.261-0.438-0.505-0.882-0.74-1.327c0.047-2.17-0.71-10.41-0.71-10.41
		l-1.195,0.123l0.315,4.588l-1.281-2.837c-0.469-3.007-0.377-5.985,0.325-8.752c0.595-2.351,1.597-4.396,2.945-6.088
		c0.225-0.2,0.453-0.396,0.688-0.587c-0.153,0.38-0.291,0.777-0.399,1.209c-0.791,3.121-0.421,7.188,0.937,11.562l-0.78,0.247
		l2.638,10.321l2.216-0.66l-0.329-0.99l-1.084,0.33l-0.376-1.604l0.799-0.188l-0.136-0.383c0.416,0.794,0.851,1.588,1.321,2.376
		c3.885,6.523,8.912,11.545,13.604,13.72l0.478,1.639C30.876,45.517,29.394,45.344,27.879,44.961z M34.367,45.135l-0.122-0.411
		c0.266,0.066,0.524,0.119,0.782,0.162C34.808,44.972,34.587,45.057,34.367,45.135z M36.473,44.259
		c-0.646,0.002-1.334-0.086-2.063-0.27c-0.136-0.036-0.274-0.074-0.411-0.115l-1.411-4.837c1.857,2.276,3.501,3.946,4.747,4.787
		C37.052,43.978,36.764,44.119,36.473,44.259z M38.076,43.411c-1.304-0.737-3.435-2.885-6.041-6.266l-2.772-9.501
		c0.192,0.345,0.392,0.722,0.639,1.144c0.76,1.303,0.652,2.171,0.979,3.689c0.325,1.519,2.821,3.472,4.014,4.667
		c1.194,1.192,2.278,0.107,2.605-0.76c0.011-0.028,0.024-0.063,0.037-0.096c1.172,2.893,1.772,5.067,1.812,6.313
		C38.932,42.886,38.51,43.156,38.076,43.411z M41.5,40.93c-0.466,0.41-0.947,0.801-1.443,1.17c-0.175-1.567-0.915-3.912-2.101-6.743
		c0.609-1.303,1.577-3.262,1.823-4.071c0.314-1.056,0.632-2.825,1.048-3.721C42.633,32.976,42.898,37.853,41.5,40.93z
		 M45.803,34.284c-0.286,1.126-0.668,2.177-1.131,3.158c-0.605,0.831-1.269,1.618-1.983,2.354c0.42-1.574,0.548-3.457,0.353-5.602
		c-0.266-2.946-1.116-6.175-2.46-9.448c-0.016-0.064-0.03-0.128-0.044-0.19c-0.217-0.976,0.218-2.277,0.759-3.688
		c0.545-1.411,0.867-4.991,0.433-5.317c-0.433-0.325-1.949-0.325-1.949-0.325c-1.955-0.326-3.582-2.606-4.453-3.365
		c-0.867-0.76-0.867-1.519-0.323-1.736c0.543-0.217,2.603,1.736,2.93,2.388c0.326,0.65,1.736,0.544,2.062,0.544
		c0.134,0,0.396-0.023,0.68-0.104c0.654,0.862,1.272,1.765,1.841,2.717C46.082,21.66,47.281,28.444,45.803,34.284z M46.566,34.318
		c0.902-3.679,0.785-7.705-0.279-11.68l0.634,0.509c0,0,0.897-1.319,0.613-3.346c-0.281-2.027-2.874-4.102-3.015-5.231
		c-0.143-1.133,0.849-1.462,0.849-1.462l-0.219-0.482c2.317,3.45,3.671,7.601,3.671,12.067C48.82,28.15,48.006,31.417,46.566,34.318
		z"/>
	<g>
	</g>
	<g>
	</g>
	<g>
	</g>
	<g>
	</g>
	<g>
	</g>
	<g>
	</g>
	<g>
	</g>
	<g>
	</g>
	<g>
	</g>
	<g>
	</g>
	<g>
	</g>
	<g>
	</g>
	<g>
	</g>
	<g>
	</g>
	<g>
	</g>
</g>
</svg>